<mxfile modified="2020-11-24T12:26:01.357Z" host="app.diagrams.net" agent="5.0 (Macintosh; Intel Mac OS X 10_13_6) AppleWebKit/537.36 (KHTML, like Gecko) Chrome/83.0.4103.116 Safari/537.36" etag="heYqi_TyWkHRhe2KU-HW" version="13.5.8" type="github">
  <diagram id="Ht1M8jgEwFfnCIfOTk4-" name="Page-1">
    <mxGraphModel dx="1186" dy="614" grid="1" gridSize="10" guides="1" tooltips="1" connect="1" arrows="1" fold="1" page="1" pageScale="1" pageWidth="1169" pageHeight="827" math="0" shadow="0">
      <root>
        <mxCell id="0" />
        <mxCell id="1" parent="0" />
        <mxCell id="CVynzXdohJQPlaJZqaoP-1" value="Client" style="outlineConnect=0;fontColor=#232F3E;gradientColor=none;fillColor=#232F3E;strokeColor=none;dashed=0;verticalLabelPosition=bottom;verticalAlign=top;align=center;html=1;fontSize=12;fontStyle=0;aspect=fixed;pointerEvents=1;shape=mxgraph.aws4.user;" vertex="1" parent="1">
          <mxGeometry x="50" y="116" width="78" height="78" as="geometry" />
        </mxCell>
        <mxCell id="CVynzXdohJQPlaJZqaoP-2" value="" style="outlineConnect=0;fontColor=#232F3E;gradientColor=none;fillColor=#232F3E;strokeColor=none;dashed=0;verticalLabelPosition=bottom;verticalAlign=top;align=center;html=1;fontSize=12;fontStyle=0;aspect=fixed;pointerEvents=1;shape=mxgraph.aws4.generic_database;" vertex="1" parent="1">
          <mxGeometry x="570" y="320" width="59" height="78" as="geometry" />
        </mxCell>
        <mxCell id="CVynzXdohJQPlaJZqaoP-3" value="" style="outlineConnect=0;fontColor=#232F3E;gradientColor=none;fillColor=#232F3E;strokeColor=none;dashed=0;verticalLabelPosition=bottom;verticalAlign=top;align=center;html=1;fontSize=12;fontStyle=0;aspect=fixed;pointerEvents=1;shape=mxgraph.aws4.generic_database;" vertex="1" parent="1">
          <mxGeometry x="629" y="370" width="59" height="78" as="geometry" />
        </mxCell>
        <mxCell id="CVynzXdohJQPlaJZqaoP-4" value="" style="outlineConnect=0;fontColor=#232F3E;gradientColor=none;fillColor=#232F3E;strokeColor=none;dashed=0;verticalLabelPosition=bottom;verticalAlign=top;align=center;html=1;fontSize=12;fontStyle=0;aspect=fixed;pointerEvents=1;shape=mxgraph.aws4.generic_database;" vertex="1" parent="1">
          <mxGeometry x="580" y="390" width="59" height="78" as="geometry" />
        </mxCell>
        <mxCell id="CVynzXdohJQPlaJZqaoP-5" value="Server" style="outlineConnect=0;fontColor=#232F3E;gradientColor=none;fillColor=#232F3E;strokeColor=none;dashed=0;verticalLabelPosition=bottom;verticalAlign=top;align=center;html=1;fontSize=12;fontStyle=0;aspect=fixed;pointerEvents=1;shape=mxgraph.aws4.traditional_server;" vertex="1" parent="1">
          <mxGeometry x="340" y="100" width="63.46" height="110" as="geometry" />
        </mxCell>
        <mxCell id="CVynzXdohJQPlaJZqaoP-6" value="" style="outlineConnect=0;fontColor=#232F3E;gradientColor=none;fillColor=#277116;strokeColor=none;dashed=0;verticalLabelPosition=bottom;verticalAlign=top;align=center;html=1;fontSize=12;fontStyle=0;aspect=fixed;pointerEvents=1;shape=mxgraph.aws4.cached_volume;" vertex="1" parent="1">
          <mxGeometry x="666" y="79.52" width="120" height="150.96" as="geometry" />
        </mxCell>
        <mxCell id="CVynzXdohJQPlaJZqaoP-7" value="" style="edgeStyle=orthogonalEdgeStyle;html=1;endArrow=block;elbow=vertical;startArrow=none;endFill=1;strokeColor=#545B64;rounded=0;" edge="1" parent="1" target="CVynzXdohJQPlaJZqaoP-5">
          <mxGeometry width="100" relative="1" as="geometry">
            <mxPoint x="110" y="134" as="sourcePoint" />
            <mxPoint x="252" y="134" as="targetPoint" />
            <Array as="points">
              <mxPoint x="280" y="134" />
              <mxPoint x="280" y="134" />
            </Array>
          </mxGeometry>
        </mxCell>
        <mxCell id="CVynzXdohJQPlaJZqaoP-8" value="Access&amp;nbsp;&lt;br&gt;a shortened url" style="edgeLabel;html=1;align=center;verticalAlign=middle;resizable=0;points=[];" vertex="1" connectable="0" parent="CVynzXdohJQPlaJZqaoP-7">
          <mxGeometry x="0.0988" y="-1" relative="1" as="geometry">
            <mxPoint as="offset" />
          </mxGeometry>
        </mxCell>
        <mxCell id="CVynzXdohJQPlaJZqaoP-9" value="" style="edgeStyle=orthogonalEdgeStyle;html=1;endArrow=block;elbow=vertical;startArrow=none;endFill=1;strokeColor=#545B64;rounded=0;" edge="1" parent="1">
          <mxGeometry width="100" relative="1" as="geometry">
            <mxPoint x="400" y="130" as="sourcePoint" />
            <mxPoint x="670" y="130" as="targetPoint" />
          </mxGeometry>
        </mxCell>
        <mxCell id="CVynzXdohJQPlaJZqaoP-10" value="Find Original url in cache" style="edgeLabel;html=1;align=center;verticalAlign=middle;resizable=0;points=[];" vertex="1" connectable="0" parent="CVynzXdohJQPlaJZqaoP-9">
          <mxGeometry x="0.1556" y="1" relative="1" as="geometry">
            <mxPoint as="offset" />
          </mxGeometry>
        </mxCell>
        <mxCell id="CVynzXdohJQPlaJZqaoP-14" value="" style="edgeStyle=orthogonalEdgeStyle;html=1;endArrow=none;elbow=vertical;startArrow=block;startFill=1;strokeColor=#545B64;rounded=0;" edge="1" parent="1" source="CVynzXdohJQPlaJZqaoP-5" target="CVynzXdohJQPlaJZqaoP-6">
          <mxGeometry width="100" relative="1" as="geometry">
            <mxPoint x="440" y="160" as="sourcePoint" />
            <mxPoint x="540" y="160" as="targetPoint" />
            <Array as="points">
              <mxPoint x="440" y="160" />
              <mxPoint x="440" y="160" />
            </Array>
          </mxGeometry>
        </mxCell>
        <mxCell id="CVynzXdohJQPlaJZqaoP-15" value="Url Found" style="edgeLabel;html=1;align=center;verticalAlign=middle;resizable=0;points=[];" vertex="1" connectable="0" parent="CVynzXdohJQPlaJZqaoP-14">
          <mxGeometry x="0.12" y="3" relative="1" as="geometry">
            <mxPoint as="offset" />
          </mxGeometry>
        </mxCell>
        <mxCell id="CVynzXdohJQPlaJZqaoP-16" value="" style="edgeStyle=orthogonalEdgeStyle;html=1;endArrow=none;elbow=vertical;startArrow=block;startFill=1;strokeColor=#545B64;rounded=0;" edge="1" parent="1" target="CVynzXdohJQPlaJZqaoP-6">
          <mxGeometry width="100" relative="1" as="geometry">
            <mxPoint x="401" y="190" as="sourcePoint" />
            <mxPoint x="561" y="190" as="targetPoint" />
            <Array as="points">
              <mxPoint x="540" y="190" />
              <mxPoint x="540" y="190" />
            </Array>
          </mxGeometry>
        </mxCell>
        <mxCell id="CVynzXdohJQPlaJZqaoP-17" value="Url Not Found" style="edgeLabel;html=1;align=center;verticalAlign=middle;resizable=0;points=[];" vertex="1" connectable="0" parent="CVynzXdohJQPlaJZqaoP-16">
          <mxGeometry x="0.5531" y="55" relative="1" as="geometry">
            <mxPoint x="-55" y="53" as="offset" />
          </mxGeometry>
        </mxCell>
        <mxCell id="CVynzXdohJQPlaJZqaoP-18" value="Has Url expired or&amp;nbsp;&lt;br&gt;User does not have permission" style="html=1;whiteSpace=wrap;aspect=fixed;shape=isoRectangle;" vertex="1" parent="1">
          <mxGeometry x="130" y="340" width="150" height="90" as="geometry" />
        </mxCell>
        <mxCell id="CVynzXdohJQPlaJZqaoP-19" value="" style="endArrow=classic;html=1;entryX=0.527;entryY=0.056;entryDx=0;entryDy=0;entryPerimeter=0;" edge="1" parent="1" source="CVynzXdohJQPlaJZqaoP-5" target="CVynzXdohJQPlaJZqaoP-18">
          <mxGeometry width="50" height="50" relative="1" as="geometry">
            <mxPoint x="290" y="270" as="sourcePoint" />
            <mxPoint x="340" y="220" as="targetPoint" />
          </mxGeometry>
        </mxCell>
        <mxCell id="CVynzXdohJQPlaJZqaoP-20" value="Url Found" style="edgeLabel;html=1;align=center;verticalAlign=middle;resizable=0;points=[];" vertex="1" connectable="0" parent="CVynzXdohJQPlaJZqaoP-19">
          <mxGeometry x="0.1005" y="3" relative="1" as="geometry">
            <mxPoint as="offset" />
          </mxGeometry>
        </mxCell>
        <mxCell id="CVynzXdohJQPlaJZqaoP-21" value="" style="curved=1;endArrow=classic;html=1;exitX=0.44;exitY=0.078;exitDx=0;exitDy=0;exitPerimeter=0;" edge="1" parent="1" source="CVynzXdohJQPlaJZqaoP-18" target="CVynzXdohJQPlaJZqaoP-1">
          <mxGeometry width="50" height="50" relative="1" as="geometry">
            <mxPoint x="110" y="300" as="sourcePoint" />
            <mxPoint x="80" y="240" as="targetPoint" />
            <Array as="points">
              <mxPoint x="205" y="260" />
            </Array>
          </mxGeometry>
        </mxCell>
        <mxCell id="CVynzXdohJQPlaJZqaoP-22" value="Yes return HTTP error 401&amp;nbsp;" style="edgeLabel;html=1;align=center;verticalAlign=middle;resizable=0;points=[];" vertex="1" connectable="0" parent="CVynzXdohJQPlaJZqaoP-21">
          <mxGeometry x="-0.0884" y="22" relative="1" as="geometry">
            <mxPoint x="-8" y="-19" as="offset" />
          </mxGeometry>
        </mxCell>
        <mxCell id="CVynzXdohJQPlaJZqaoP-23" value="" style="curved=1;endArrow=classic;html=1;exitX=0.407;exitY=0.078;exitDx=0;exitDy=0;exitPerimeter=0;" edge="1" parent="1" source="CVynzXdohJQPlaJZqaoP-18" target="CVynzXdohJQPlaJZqaoP-1">
          <mxGeometry width="50" height="50" relative="1" as="geometry">
            <mxPoint x="80" y="300" as="sourcePoint" />
            <mxPoint x="130" y="250" as="targetPoint" />
            <Array as="points">
              <mxPoint x="130" y="320" />
              <mxPoint x="90" y="290" />
            </Array>
          </mxGeometry>
        </mxCell>
        <mxCell id="CVynzXdohJQPlaJZqaoP-24" value="No, Redirect to original url" style="edgeLabel;html=1;align=center;verticalAlign=middle;resizable=0;points=[];" vertex="1" connectable="0" parent="CVynzXdohJQPlaJZqaoP-23">
          <mxGeometry x="-0.0005" y="-8" relative="1" as="geometry">
            <mxPoint as="offset" />
          </mxGeometry>
        </mxCell>
        <mxCell id="CVynzXdohJQPlaJZqaoP-25" value="" style="curved=1;endArrow=classic;html=1;" edge="1" parent="1" target="CVynzXdohJQPlaJZqaoP-2">
          <mxGeometry width="50" height="50" relative="1" as="geometry">
            <mxPoint x="410" y="210" as="sourcePoint" />
            <mxPoint x="640" y="260" as="targetPoint" />
            <Array as="points">
              <mxPoint x="590" y="250" />
              <mxPoint x="590" y="320" />
            </Array>
          </mxGeometry>
        </mxCell>
        <mxCell id="CVynzXdohJQPlaJZqaoP-26" value="Find Original url" style="edgeLabel;html=1;align=center;verticalAlign=middle;resizable=0;points=[];" vertex="1" connectable="0" parent="CVynzXdohJQPlaJZqaoP-25">
          <mxGeometry x="0.0339" y="-2" relative="1" as="geometry">
            <mxPoint as="offset" />
          </mxGeometry>
        </mxCell>
        <mxCell id="CVynzXdohJQPlaJZqaoP-27" value="" style="curved=1;endArrow=classic;html=1;" edge="1" parent="1" source="CVynzXdohJQPlaJZqaoP-2" target="CVynzXdohJQPlaJZqaoP-5">
          <mxGeometry width="50" height="50" relative="1" as="geometry">
            <mxPoint x="420" y="350" as="sourcePoint" />
            <mxPoint x="470" y="300" as="targetPoint" />
            <Array as="points">
              <mxPoint x="470" y="350" />
              <mxPoint x="420" y="300" />
            </Array>
          </mxGeometry>
        </mxCell>
        <mxCell id="CVynzXdohJQPlaJZqaoP-28" value="Url Found" style="edgeLabel;html=1;align=center;verticalAlign=middle;resizable=0;points=[];" vertex="1" connectable="0" parent="CVynzXdohJQPlaJZqaoP-27">
          <mxGeometry x="-0.0349" y="-1" relative="1" as="geometry">
            <mxPoint x="1" as="offset" />
          </mxGeometry>
        </mxCell>
        <mxCell id="CVynzXdohJQPlaJZqaoP-29" value="" style="endArrow=classic;html=1;" edge="1" parent="1" source="CVynzXdohJQPlaJZqaoP-2" target="CVynzXdohJQPlaJZqaoP-5">
          <mxGeometry width="50" height="50" relative="1" as="geometry">
            <mxPoint x="490" y="330" as="sourcePoint" />
            <mxPoint x="540" y="280" as="targetPoint" />
          </mxGeometry>
        </mxCell>
        <mxCell id="CVynzXdohJQPlaJZqaoP-30" value="Url Not Found" style="edgeLabel;html=1;align=center;verticalAlign=middle;resizable=0;points=[];" vertex="1" connectable="0" parent="CVynzXdohJQPlaJZqaoP-29">
          <mxGeometry x="-0.3295" y="3" relative="1" as="geometry">
            <mxPoint as="offset" />
          </mxGeometry>
        </mxCell>
        <mxCell id="CVynzXdohJQPlaJZqaoP-31" value="" style="endArrow=classic;html=1;" edge="1" parent="1" source="CVynzXdohJQPlaJZqaoP-5">
          <mxGeometry width="50" height="50" relative="1" as="geometry">
            <mxPoint x="330" y="170" as="sourcePoint" />
            <mxPoint x="120" y="170" as="targetPoint" />
            <Array as="points">
              <mxPoint x="340" y="170" />
              <mxPoint x="280" y="170" />
            </Array>
          </mxGeometry>
        </mxCell>
        <mxCell id="CVynzXdohJQPlaJZqaoP-32" value="Return error , url not found" style="edgeLabel;html=1;align=center;verticalAlign=middle;resizable=0;points=[];" vertex="1" connectable="0" parent="CVynzXdohJQPlaJZqaoP-31">
          <mxGeometry x="0.0545" y="1" relative="1" as="geometry">
            <mxPoint as="offset" />
          </mxGeometry>
        </mxCell>
        <mxCell id="CVynzXdohJQPlaJZqaoP-33" value="" style="endArrow=classic;html=1;" edge="1" parent="1" source="CVynzXdohJQPlaJZqaoP-2" target="CVynzXdohJQPlaJZqaoP-6">
          <mxGeometry width="50" height="50" relative="1" as="geometry">
            <mxPoint x="580" y="320" as="sourcePoint" />
            <mxPoint x="630" y="270" as="targetPoint" />
            <Array as="points">
              <mxPoint x="630" y="310" />
            </Array>
          </mxGeometry>
        </mxCell>
        <mxCell id="CVynzXdohJQPlaJZqaoP-34" value="Update Cache" style="edgeLabel;html=1;align=center;verticalAlign=middle;resizable=0;points=[];" vertex="1" connectable="0" parent="CVynzXdohJQPlaJZqaoP-33">
          <mxGeometry x="0.1613" relative="1" as="geometry">
            <mxPoint as="offset" />
          </mxGeometry>
        </mxCell>
      </root>
    </mxGraphModel>
  </diagram>
</mxfile>
